<?xml version="1.0" encoding="UTF-8" standalone="no"?>
<svg
   xmlns:dc="http://purl.org/dc/elements/1.1/"
   xmlns:cc="http://creativecommons.org/ns#"
   xmlns:rdf="http://www.w3.org/1999/02/22-rdf-syntax-ns#"
   xmlns:svg="http://www.w3.org/2000/svg"
   xmlns="http://www.w3.org/2000/svg"
   xmlns:sodipodi="http://sodipodi.sourceforge.net/DTD/sodipodi-0.dtd"
   xmlns:inkscape="http://www.inkscape.org/namespaces/inkscape"
   width="210mm"
   height="297mm"
   viewBox="0 0 210 297"
   version="1.1"
   id="svg8"
   inkscape:version="1.0.1 (3bc2e813f5, 2020-09-07)"
   sodipodi:docname="anac.svg">
  <defs
     id="defs2">
    <rect
       x="448.78278"
       y="284.08726"
       width="110.13074"
       height="20.274069"
       id="rect2266" />
    <rect
       x="309.01897"
       y="621.93165"
       width="74.511447"
       height="29.733784"
       id="rect4002" />
    <rect
       x="269.55091"
       y="371.6723"
       width="84.599695"
       height="35.043389"
       id="rect2935" />
    <rect
       x="249.90538"
       y="302.11649"
       width="115.3954"
       height="65.839094"
       id="rect2159" />
    <rect
       x="256.09992"
       y="404.06089"
       width="78.22817"
       height="12.920037"
       id="rect2138" />
    <rect
       x="294.24057"
       y="350.87635"
       width="18.406628"
       height="11.858116"
       id="rect2021" />
    <rect
       x="272.82389"
       y="334.27184"
       width="61.823396"
       height="20.649515"
       id="rect2015" />
    <rect
       x="10.51248"
       y="-108.87926"
       width="76.090332"
       height="24.153675"
       id="rect1785" />
    <rect
       x="276.80737"
       y="321.93901"
       width="69.208579"
       height="13.055606"
       id="rect1909" />
    <rect
       x="18.406628"
       y="-53.00755"
       width="56.281807"
       height="12.654557"
       id="rect1749" />
    <rect
       x="82.185379"
       y="135.10475"
       width="51.625901"
       height="15.630485"
       id="rect877" />
    <rect
       x="18.406628"
       y="-53.007549"
       width="56.281807"
       height="12.654557"
       id="rect1749-7" />
    <rect
       x="18.406628"
       y="-53.007549"
       width="56.281807"
       height="12.654557"
       id="rect1828" />
    <rect
       x="18.406628"
       y="-53.007549"
       width="56.281807"
       height="12.654557"
       id="rect1749-7-3" />
    <rect
       x="18.406628"
       y="-53.007549"
       width="56.281807"
       height="12.654557"
       id="rect2038" />
    <rect
       x="272.82388"
       y="334.27185"
       width="61.823395"
       height="20.649515"
       id="rect2015-1" />
    <rect
       x="272.82388"
       y="334.27185"
       width="61.823395"
       height="20.649515"
       id="rect3361" />
    <rect
       x="256.09991"
       y="404.06088"
       width="78.228172"
       height="12.920037"
       id="rect2138-9" />
    <rect
       x="256.09991"
       y="404.06088"
       width="78.228172"
       height="12.920037"
       id="rect3364" />
    <rect
       x="18.406628"
       y="-53.007549"
       width="72.564593"
       height="13.893465"
       id="rect1749-7-5" />
    <rect
       x="18.406628"
       y="-53.007549"
       width="56.281807"
       height="12.654557"
       id="rect2159-5" />
  </defs>
  <sodipodi:namedview
     id="base"
     pagecolor="#ffffff"
     bordercolor="#666666"
     borderopacity="1.0"
     inkscape:pageopacity="0.0"
     inkscape:pageshadow="2"
     inkscape:zoom="1.4949325"
     inkscape:cx="-187.97944"
     inkscape:cy="182.06866"
     inkscape:document-units="mm"
     inkscape:current-layer="layer2"
     inkscape:document-rotation="0"
     showgrid="false"
     inkscape:window-width="1920"
     inkscape:window-height="1057"
     inkscape:window-x="-8"
     inkscape:window-y="-4"
     inkscape:window-maximized="1" />
  <metadata
     id="metadata5">
    <rdf:RDF>
      <cc:Work
         rdf:about="">
        <dc:format>image/svg+xml</dc:format>
        <dc:type
           rdf:resource="http://purl.org/dc/dcmitype/StillImage" />
        <dc:title></dc:title>
      </cc:Work>
    </rdf:RDF>
  </metadata>
  <g
     inkscape:label="Lager 1"
     inkscape:groupmode="layer"
     id="layer1"
     style="display:inline" />
  <g
     inkscape:groupmode="layer"
     id="layer6"
     inkscape:label="Lager 6"
     style="display:inline" />
  <g
     inkscape:groupmode="layer"
     id="layer2"
     inkscape:label="Lager 2"
     style="display:inline">
    <text
       xml:space="preserve"
       id="text2019"
       style="fill:black;fill-opacity:1;line-height:1.25;stroke:none;font-family:sans-serif;font-style:normal;font-weight:normal;font-size:10.58333333px;white-space:pre;shape-inside:url(#rect2021);" />
    <text
       xml:space="preserve"
       id="text2157"
       style="fill:black;fill-opacity:1;line-height:1.25;stroke:none;font-family:sans-serif;font-style:normal;font-weight:normal;font-size:10.58333333px;white-space:pre;shape-inside:url(#rect2159);" />
    <text
       xml:space="preserve"
       id="text4000"
       style="font-style:normal;font-weight:normal;font-size:10.5833px;line-height:1.25;font-family:sans-serif;white-space:pre;shape-inside:url(#rect4002);fill:#000000;fill-opacity:1;stroke:none;" />
    <path
       id="path1587-7-0"
       style="display:inline;fill:none;stroke:#000000;stroke-width:0.2;stroke-linecap:round;stroke-linejoin:round;stroke-miterlimit:4;stroke-dasharray:none;stroke-opacity:1"
       d="m -22.401612,40.639038 -0.001,1.09982 m 0.46852,1.59548 c 0.227119,0.24085 0.44145,0.14898 0.5482,0 m 0.0307,-1.46258 c -0.001,-0.021 0.01082,0.223466 0,0 -0.0947,-0.67787 -0.846425,-0.85932 -1.046375,-1.23272 m 1.56208,2.94289 c 0.007,-0.12063 0.0107,-0.23307 0.0113,-0.33788 -0.363186,-1.571681 -0.880425,-1.354917 -1.43394,-1.43055 l 0.10884,0.459498 c 0.25024,0.1179 0.192411,0.276562 0.255791,0.422172 m 5.44088,3.38925 c -0.55625,-0.17355 -1.230272,-0.40395 -1.553572,-1.15339 -0.3443,-0.7527 -0.997118,-0.90187 -1.797308,-1.04222 -0.38096,-0.0459 -0.728341,-0.14311 -1.031991,-0.30688 0.0757,0.54122 -0.199239,1.00681 -0.466509,0.33474 m 0.47786,-0.67262 c 1.90365,0.0989 2.76203,0.68946 3.17811,1.4897 0.28765,0.56722 0.77219,0.92532 1.19341,1.35067 -0.874154,-0.06651 -2.599936,-0.04546 -4.36853,-0.66161 m -0.50608,0.53128 c 0.19844,0.37941 0.36762,0.80572 0.71329,0.94916 -0.0362,-0.35458 -0.0422,-0.71352 -0.10289,-1.06453 -0.0242,-0.14016 -0.0572,-0.27906 -0.10432,-0.41591 -0.0616,-0.17892 -0.14731,-0.35434 -0.26924,-0.52452 -0.19457,-0.25822 -0.17553,-0.63389 -0.21161,-0.98162 -0.0489,-0.14262 -0.0399,-0.36299 -0.0799,-0.58234 -0.0467,-0.25639 -0.16037,-0.51139 -0.51164,-0.63916 0.0168,0.24019 -0.004,0.46662 -0.0366,0.63917 -0.0686,0.36263 -0.22669,0.54582 -0.46757,0.54596 m 2.65e-4,7.08942 c 0.53877,-0.5459 1.526469,-1.19377 1.08599,-2.47677 -0.1751,-0.46129 -0.20137,-0.90154 -0.23123,-1.34503 1.253609,1.8304 1.91654,3.67768 3.134069,2.76549 1.634526,-1.40092 -0.595584,-2.80537 -2.308344,-4.07469 m -2.14835,-2.50438 c -0.22713,0.24085 -0.44145,0.14898 -0.5482,0 m -0.0307,-1.46258 c 10e-4,-0.021 0.0048,0.301684 0,0 0.0947,-0.67787 0.8467,-0.85932 1.04665,-1.23272 m -1.56225,2.94289 c -0.007,-0.12063 -0.0107,-0.23307 -0.0112,-0.33788 0.479007,-1.502089 0.897246,-1.344968 1.43394,-1.43055 l -0.10884,0.451676 c -0.25023,0.1179 -0.1924,0.284384 -0.2558,0.429994 m -5.440856,3.38925 c 0.55624,-0.17355 1.230272,-0.419594 1.553572,-1.169034 0.34429,-0.7527 0.997118,-0.886226 1.797308,-1.026576 0.38095,-0.0459 0.72828,-0.14311 1.031916,-0.30688 -0.0757,0.54122 0.19931,1.00681 0.46657,0.33474 m -0.47786,-0.67262 c -1.903656,0.0989 -2.762036,0.68946 -3.178116,1.4897 -0.28766,0.56722 -0.77218,0.92532 -1.1934,1.35067 0.856894,-0.07787 2.586077,0.118568 4.368526,-0.66161 m 0.50606,0.53128 c -0.19844,0.37941 -0.36762,0.80572 -0.713286,0.94916 0.0361,-0.35458 0.0422,-0.71352 0.102906,-1.06453 0.0242,-0.14016 0.0572,-0.27906 0.10432,-0.41591 0.0616,-0.17892 0.1473,-0.35434 0.26924,-0.52452 0.19456,-0.25822 0.17552,-0.63389 0.2116,-0.98162 0.0489,-0.14262 0.0399,-0.36299 0.0799,-0.58234 0.0467,-0.25639 0.16037,-0.51139 0.51163,-0.63916 -0.0168,0.24019 0.004,0.46662 0.0366,0.63917 0.0686,0.36263 0.22666,0.54582 0.46755,0.54596 m 2.6e-4,7.08942 c -0.53876,-0.5459 -1.52708,-1.19377 -1.08661,-2.47677 0.17511,-0.4613 0.20137,-0.90154 0.23123,-1.34503 -1.253596,1.8304 -1.916526,3.67768 -3.134056,2.76549 -1.63453,-1.40092 0.59558,-2.80537 2.308346,-4.07469"
       sodipodi:nodetypes="ccccccccccccccccccccccccscccccccccccccccccccccccccccccccccsccccccccccc" />
    <path
       style="fill:#000000;fill-opacity:1;stroke-width:0.75590552;stroke-linecap:round;stroke-linejoin:round;stroke-miterlimit:4;stroke-dasharray:none;paint-order:fill markers stroke"
       d="m -82.137147,161.85782 c -0.480974,0.008 -0.769923,0.49022 -0.764301,0.93064 -0.01967,0.45326 -0.230845,1.04426 0.214203,1.3587 0.526927,0.45277 1.526635,0.44171 1.844265,-0.25365 0.209772,-0.52284 -0.133613,-1.05242 -0.372107,-1.50182 -0.184433,-0.33317 -0.530088,-0.57159 -0.92206,-0.53387 z"
       id="path2251"
       transform="scale(0.26458333)" />
    <path
       style="fill:#000000;fill-opacity:1;stroke-width:0.75590552;stroke-linecap:round;stroke-linejoin:round;stroke-miterlimit:4;stroke-dasharray:none;paint-order:fill markers stroke"
       d="m -87.320756,161.89955 c -0.671618,0.0403 -1.004933,0.73966 -1.174786,1.30372 -0.198104,0.46874 0.06737,1.04661 0.560732,1.18548 0.608635,0.22017 1.503563,-0.0979 1.554977,-0.81893 -0.02894,-0.44576 0.0077,-0.93807 -0.230515,-1.33466 -0.156695,-0.22992 -0.435531,-0.3521 -0.710408,-0.33561 z"
       id="path2253"
       transform="scale(0.26458333)" />
  </g>
  <g
     inkscape:groupmode="layer"
     id="layer5"
     inkscape:label="Lager 5"
     style="display:inline" />
  <g
     inkscape:groupmode="layer"
     id="layer4"
     inkscape:label="Lager 4"
     style="display:inline" />
  <g
     inkscape:groupmode="layer"
     id="layer3"
     inkscape:label="Lager 3"
     style="display:inline" />
</svg>
