<svg id="svg" xmlns="http://www.w3.org/2000/svg" xmlns:xlink="http://www.w3.org/1999/xlink" width="400" height="482.59303721488595" viewBox="0, 0, 400,482.59303721488595"><g id="svgg"><path id="path0" d="M1.761 0.179 C 1.249 0.383,0.516 1.077,0.226 1.633 C -0.056 2.172,-0.120 351.134,0.161 356.303 C 2.571 400.679,21.343 426.049,60.664 438.068 C 71.284 441.314,82.196 443.659,100.200 446.564 C 127.830 451.022,133.232 452.002,143.176 454.357 C 166.866 459.968,183.690 468.165,196.073 480.130 C 199.626 483.562,200.375 483.562,203.926 480.130 C 215.710 468.737,231.656 460.720,253.621 455.147 C 262.806 452.816,271.905 451.057,288.836 448.337 C 318.945 443.499,328.240 441.590,340.376 437.748 C 373.692 427.203,391.749 407.175,397.834 374.018 C 398.592 369.884,399.015 366.549,399.713 359.184 C 399.912 357.081,400.115 3.222,399.918 2.117 C 399.802 1.467,398.975 0.504,398.287 0.216 C 397.636 -0.056,2.444 -0.092,1.761 0.179 M309.513 12.655 C 310.816 13.147,311.124 13.762,312.120 17.862 C 316.147 34.432,320.740 45.937,327.282 55.837 C 329.367 58.993,329.577 59.934,328.497 61.271 C 327.168 62.916,326.663 62.888,320.744 60.854 C 318.135 59.957,315.925 59.224,315.834 59.224 C 315.731 59.224,315.650 60.108,315.618 61.598 C 315.545 64.937,314.854 65.786,312.211 65.786 L 311.004 65.786 311.004 66.832 L 311.004 67.878 311.765 67.798 C 312.183 67.753,312.993 67.677,313.565 67.629 C 314.138 67.580,315.407 67.428,316.386 67.292 C 320.285 66.748,321.218 67.798,321.027 72.515 L 320.916 75.230 322.049 75.230 C 326.079 75.230,330.781 76.361,334.358 78.190 C 338.557 80.338,340.425 81.902,348.699 90.201 C 354.925 96.444,357.039 98.403,359.080 99.821 C 360.190 100.592,360.262 100.250,358.383 103.169 C 357.503 104.537,356.783 105.684,356.783 105.717 C 356.783 105.832,361.031 107.456,362.145 107.767 C 363.722 108.208,366.140 108.201,367.387 107.752 C 367.893 107.569,368.307 107.475,368.307 107.542 C 368.307 108.598,366.720 111.753,365.858 112.410 C 365.306 112.830,342.090 123.976,341.985 123.871 C 341.950 123.836,342.036 123.340,342.176 122.768 C 342.767 120.353,342.471 116.893,341.455 114.319 C 341.236 113.765,341.088 113.280,341.126 113.242 C 341.191 113.178,351.267 108.341,355.012 106.577 L 356.682 105.790 354.820 104.766 C 351.020 102.677,347.316 100.193,341.830 96.052 C 334.429 90.468,328.528 88.051,322.268 88.038 C 320.307 88.035,320.453 87.771,320.450 91.317 L 320.448 93.878 322.646 93.821 C 332.589 93.565,337.898 97.188,338.561 104.682 C 338.650 105.694,338.825 106.923,338.950 107.413 C 339.222 108.487,339.235 109.265,338.998 110.209 C 338.825 110.893,338.835 110.928,339.310 111.327 C 339.822 111.758,341.018 113.299,340.916 113.397 C 340.883 113.427,340.316 113.703,339.656 114.009 C 338.996 114.315,333.846 116.745,328.211 119.410 C 322.577 122.074,316.746 124.828,315.254 125.529 L 312.540 126.804 311.772 125.999 L 311.004 125.194 311.004 126.382 C 311.004 127.036,311.038 127.571,311.080 127.571 C 311.122 127.571,311.480 127.413,311.877 127.221 C 312.758 126.793,312.735 126.771,313.010 128.315 C 313.554 131.367,313.054 134.344,311.460 137.535 C 311.119 138.217,310.897 138.776,310.966 138.776 C 311.035 138.776,317.968 135.472,326.374 131.435 C 334.779 127.398,341.681 124.157,341.710 124.233 C 341.789 124.436,340.712 126.272,340.086 127.001 L 339.545 127.632 340.072 128.773 C 341.868 132.660,341.785 136.349,339.834 139.368 C 339.498 139.888,339.171 140.593,339.106 140.935 C 338.111 146.243,328.191 149.478,320.664 146.948 C 319.890 146.688,319.235 146.497,319.209 146.524 C 318.973 146.760,318.616 208.864,318.849 209.098 C 318.893 209.143,319.181 209.128,319.488 209.065 L 320.047 208.951 319.992 206.693 L 319.937 204.435 320.713 204.269 C 328.791 202.545,333.964 203.633,337.025 207.699 C 339.156 210.530,339.021 213.371,336.584 216.968 C 333.137 222.057,330.511 224.109,324.890 226.107 L 323.169 226.719 323.169 227.805 C 323.169 228.403,323.231 228.892,323.306 228.892 C 324.256 228.892,330.979 228.204,331.587 228.045 C 332.918 227.696,333.844 227.033,336.145 224.783 L 338.326 222.649 338.430 224.690 C 338.487 225.812,338.534 227.353,338.535 228.113 L 338.535 229.495 336.639 231.554 C 331.954 236.642,329.716 237.970,323.729 239.210 C 322.585 239.448,321.519 239.678,321.361 239.722 C 321.118 239.790,321.081 239.952,321.121 240.789 L 321.168 241.777 323.649 241.963 C 330.677 242.490,330.919 242.430,335.494 239.064 C 336.595 238.254,337.585 237.539,337.695 237.474 C 337.951 237.323,337.296 239.158,336.281 241.432 C 333.334 248.037,329.983 250.882,323.449 252.330 C 323.081 252.411,323.009 252.512,323.006 252.944 C 322.995 254.460,321.494 255.942,319.970 255.942 L 319.482 255.942 319.569 257.663 C 319.616 258.609,319.726 261.797,319.813 264.746 C 319.899 267.695,320.085 273.165,320.225 276.901 C 320.610 287.141,320.480 287.291,312.403 285.933 C 309.259 285.404,307.467 285.404,304.324 285.933 C 299.455 286.751,298.149 286.669,297.103 285.478 C 296.228 284.481,296.224 284.415,296.509 276.942 C 296.910 266.420,297.217 256.196,297.134 256.063 C 297.093 255.996,296.785 255.942,296.450 255.942 C 293.849 255.942,283.289 252.771,279.600 250.882 C 277.855 249.988,277.693 246.725,279.350 245.838 C 279.641 245.682,279.350 245.497,276.895 244.269 C 273.669 242.657,271.297 241.265,268.853 239.552 C 266.736 238.067,267.109 238.032,265.236 239.896 C 262.928 242.193,261.614 244.661,260.598 248.607 C 260.351 249.565,260.111 250.387,260.063 250.434 C 259.806 250.691,254.475 248.735,251.511 247.296 L 249.561 246.349 249.451 245.614 C 249.203 243.963,249.476 239.313,249.919 237.626 C 250.413 235.746,250.417 235.757,249.431 236.433 C 247.337 237.868,245.482 240.281,244.671 242.625 L 244.485 243.162 242.567 241.723 C 241.512 240.932,239.615 239.398,238.350 238.314 L 236.051 236.345 236.139 234.339 C 236.271 231.338,236.814 229.198,237.863 227.545 C 238.481 226.569,238.439 226.540,237.030 226.967 C 234.449 227.751,232.526 229.093,231.577 230.772 C 231.020 231.757,231.194 231.817,229.132 229.935 C 228.251 229.132,225.694 226.852,223.449 224.868 C 221.204 222.884,218.215 220.195,216.807 218.892 C 207.166 209.975,199.651 205.398,192.077 203.827 C 191.329 203.672,190.684 203.519,190.643 203.487 C 190.558 203.419,190.174 199.339,190.164 198.399 C 190.157 197.771,190.177 197.749,191.197 197.222 C 196.545 194.456,196.137 188.858,189.597 175.285 C 188.496 173.000,187.595 171.053,187.595 170.959 C 187.595 170.706,187.230 170.750,186.407 171.103 L 185.673 171.418 186.090 172.504 C 190.622 184.299,190.492 192.004,185.727 194.023 L 184.842 194.398 184.933 196.238 C 184.983 197.251,185.108 200.420,185.212 203.281 C 185.315 206.142,185.424 208.513,185.455 208.549 C 185.486 208.584,186.265 208.672,187.186 208.744 C 191.890 209.111,198.838 211.788,201.506 214.259 C 201.849 214.577,201.427 215.054,195.279 221.296 C 182.829 233.937,178.569 239.937,176.789 247.344 C 175.284 253.605,176.106 257.456,181.357 268.761 C 190.824 289.144,192.624 302.034,188.782 321.913 L 188.194 324.957 188.850 327.951 C 192.820 346.066,191.486 360.943,184.819 372.909 C 184.365 373.723,183.955 374.390,183.907 374.390 C 183.367 374.390,176.711 367.926,176.711 367.401 C 176.711 367.273,177.033 366.429,177.427 365.524 C 180.339 358.835,180.551 354.795,178.391 347.067 C 176.232 339.341,176.044 335.062,177.601 329.055 C 177.932 327.777,177.884 327.776,176.560 329.025 C 171.528 333.772,170.641 338.227,173.372 345.034 C 175.805 351.097,175.759 354.375,173.167 359.544 C 172.475 360.925,172.409 360.972,172.038 360.344 C 171.894 360.102,170.542 358.427,169.033 356.623 C 162.248 348.509,160.747 344.094,162.691 337.973 L 163.066 336.791 162.245 337.277 C 158.655 339.405,154.241 340.958,148.156 342.235 C 144.881 342.922,144.559 343.561,144.544 349.420 C 144.489 369.909,155.994 384.917,172.709 386.162 C 175.836 386.395,179.212 385.718,185.628 383.574 L 190.144 382.064 191.027 381.181 C 194.660 377.548,204.007 378.624,210.360 383.406 C 213.864 386.042,217.566 391.303,219.054 395.756 C 219.932 398.385,218.808 400.325,216.409 400.317 C 215.480 400.315,215.232 400.202,213.490 398.994 C 211.093 397.332,208.342 397.186,205.852 398.590 C 203.008 400.193,202.144 400.358,200.276 399.655 C 199.265 399.275,199.018 399.255,197.560 399.439 L 196.560 399.565 198.202 400.543 C 201.055 402.242,201.627 402.740,206.331 407.613 C 209.978 411.392,211.688 414.531,212.598 419.119 C 213.645 424.398,212.371 433.072,210.332 434.550 C 208.512 435.868,206.221 434.982,205.614 432.726 C 204.598 428.951,201.820 426.585,198.388 426.573 C 197.226 426.569,196.159 426.140,195.247 425.311 C 194.421 424.561,194.363 424.536,193.144 424.435 C 187.804 423.993,183.362 420.490,180.370 414.358 C 179.876 413.346,179.616 412.938,179.686 413.285 C 180.060 415.150,179.604 419.232,178.861 420.668 C 178.623 421.130,178.632 421.259,179.015 422.785 C 180.366 428.160,179.659 434.719,177.166 439.939 C 175.493 443.441,171.731 442.875,171.117 439.030 C 170.542 435.430,168.472 433.294,164.803 432.514 C 162.650 432.057,161.063 430.745,160.644 429.075 C 160.572 428.785,160.316 428.605,159.595 428.336 C 154.701 426.505,151.286 421.826,150.408 415.750 L 150.206 414.347 148.879 414.062 C 145.596 413.356,140.191 411.170,139.038 410.083 C 138.962 410.011,138.278 410.416,137.517 410.981 C 132.339 414.832,126.183 415.728,121.180 413.357 C 120.183 412.885,119.882 412.810,119.314 412.896 C 118.941 412.952,117.999 412.912,117.221 412.808 C 113.808 412.350,111.005 413.780,109.426 416.785 C 108.464 418.616,107.535 419.194,105.860 419.006 C 103.950 418.790,103.346 417.616,103.266 413.955 C 103.074 405.245,106.006 398.402,111.800 394.041 C 112.507 393.509,113.661 392.487,114.366 391.770 C 116.505 389.591,118.694 388.706,122.396 388.524 L 124.344 388.428 123.529 387.751 C 122.340 386.763,121.259 385.383,120.450 383.819 L 119.739 382.443 118.093 382.739 C 109.954 384.203,107.275 382.957,102.041 375.270 L 100.951 373.669 102.342 373.552 C 107.690 373.102,110.429 370.395,110.441 365.546 C 110.445 364.277,110.570 364.311,108.475 365.010 C 104.706 366.267,97.387 366.989,96.581 366.182 C 96.189 365.790,91.422 355.092,91.578 354.954 C 91.610 354.926,92.207 355.014,92.903 355.151 C 96.543 355.866,99.942 354.057,102.899 349.833 C 103.694 348.697,103.774 348.779,102.121 349.033 C 97.416 349.756,92.600 348.914,89.326 346.796 L 88.275 346.116 87.203 342.606 C 86.106 339.010,84.834 334.504,84.834 334.210 C 84.834 334.115,85.036 334.150,85.310 334.291 C 92.037 337.770,97.120 336.492,99.376 330.755 L 99.697 329.938 97.843 329.827 C 91.993 329.477,87.617 327.597,83.557 323.689 L 81.937 322.129 81.379 319.248 C 80.679 315.631,79.540 309.042,79.604 308.978 C 79.631 308.951,80.836 309.327,82.283 309.813 C 98.828 315.370,114.374 315.714,124.253 310.743 C 131.442 307.125,131.057 303.460,122.389 293.017 C 115.624 284.868,113.224 278.545,112.902 268.027 L 112.808 264.986 109.586 268.194 C 93.678 284.027,76.153 288.050,59.501 279.691 C 42.586 271.200,34.165 254.013,39.538 238.951 C 42.262 231.313,47.124 225.430,58.824 215.614 C 60.672 214.063,63.598 211.600,65.326 210.140 C 67.053 208.681,68.532 207.446,68.613 207.397 C 68.865 207.241,74.720 209.303,75.316 209.758 C 77.324 211.289,76.793 215.064,74.131 218.190 C 73.359 219.096,73.582 219.111,75.320 218.271 C 83.161 214.480,84.535 208.511,78.287 205.370 C 77.618 205.034,75.783 204.348,74.208 203.845 C 55.989 198.029,48.599 187.490,52.149 172.389 L 52.431 171.188 52.954 172.709 C 56.100 181.856,62.547 187.969,71.619 190.405 C 73.409 190.886,73.414 190.876,71.881 189.854 C 59.903 181.870,56.610 171.882,62.217 160.546 L 63.285 158.387 63.647 160.226 C 65.136 167.797,69.178 173.533,77.267 179.555 C 79.171 180.973,80.344 181.768,85.154 184.902 C 99.381 194.173,103.383 206.679,95.229 216.391 C 91.310 221.060,85.331 223.837,75.550 225.530 C 62.714 227.752,58.226 230.386,53.253 238.619 C 46.611 249.614,51.397 262.471,64.558 268.993 C 79.168 276.231,94.418 270.336,108.044 252.183 C 112.683 246.003,114.326 242.643,116.921 234.033 C 120.697 221.504,123.171 215.633,132.883 196.158 C 143.083 175.704,147.553 163.730,148.458 154.436 L 148.562 153.370 147.950 153.500 C 143.857 154.371,136.162 152.816,132.833 150.446 L 132.340 150.095 133.601 149.437 C 138.514 146.877,141.055 142.740,140.453 138.285 L 140.354 137.555 139.125 137.760 C 128.730 139.491,120.171 135.234,115.969 126.241 C 115.055 124.285,115.048 124.341,116.166 124.488 C 121.509 125.193,126.825 124.152,130.208 121.738 C 132.043 120.428,135.047 116.844,135.648 115.246 C 135.726 115.037,135.239 115.006,131.855 115.002 C 118.792 114.989,111.860 110.310,110.200 100.385 C 109.862 98.361,109.671 98.461,112.236 99.318 C 122.933 102.892,129.517 100.265,132.550 91.212 C 133.131 89.477,133.377 89.707,130.709 89.487 C 120.734 88.665,114.800 84.542,112.607 76.913 C 112.076 75.065,111.423 70.748,111.675 70.748 C 111.706 70.748,112.319 71.044,113.037 71.405 C 121.173 75.495,127.657 74.902,132.789 69.597 C 133.995 68.351,136.089 65.579,136.250 65.017 C 136.275 64.932,135.504 64.260,134.537 63.524 C 127.686 58.304,123.895 51.976,123.890 45.753 L 123.890 44.848 125.323 45.481 C 129.166 47.176,132.688 47.353,135.297 45.981 C 135.758 45.738,136.175 45.520,136.224 45.496 C 136.273 45.472,136.660 45.958,137.083 46.578 C 138.358 48.443,140.638 50.357,143.531 51.987 L 144.685 52.638 145.492 51.996 C 146.483 51.207,146.511 51.342,145.095 50.137 C 139.747 45.588,137.299 38.023,138.372 29.368 C 138.582 27.677,139.060 24.965,139.169 24.847 C 139.255 24.754,144.073 25.490,145.818 25.862 C 154.296 27.671,159.852 32.093,161.615 38.434 C 161.931 39.571,161.890 39.566,162.860 38.581 L 163.643 37.786 163.355 36.140 C 162.677 32.262,161.406 29.850,158.430 26.795 L 157.012 25.340 157.678 24.899 C 160.813 22.825,164.519 20.961,166.278 20.574 L 166.780 20.464 166.343 21.397 C 165.499 23.197,165.813 25.472,167.107 26.947 C 168.117 28.097,167.878 28.063,175.270 28.100 C 191.728 28.181,201.854 29.958,205.547 33.412 C 206.366 34.178,206.811 34.996,207.119 36.304 C 207.606 38.370,208.579 38.753,214.086 39.047 C 215.758 39.137,218.243 39.388,219.608 39.606 C 221.889 39.970,230.821 41.732,230.928 41.839 C 231.564 42.475,231.735 46.159,231.214 47.987 L 230.926 48.994 229.833 48.887 L 228.740 48.779 229.285 50.130 C 231.156 54.770,231.099 59.530,229.138 62.484 C 228.233 63.848,227.287 64.593,225.261 65.537 C 225.245 65.545,224.969 66.738,224.647 68.190 C 224.326 69.641,224.024 70.990,223.977 71.188 C 223.921 71.428,223.966 71.549,224.111 71.549 C 224.231 71.549,225.410 71.687,226.731 71.855 C 236.906 73.153,244.713 71.259,249.868 66.242 C 252.045 64.123,253.862 60.849,253.862 59.044 C 253.862 58.255,254.151 58.392,254.994 59.579 C 264.526 73.011,249.758 83.558,229.512 77.778 C 227.696 77.259,225.715 76.723,225.110 76.585 C 224.505 76.448,223.884 76.298,223.729 76.252 C 223.478 76.177,223.448 76.314,223.437 77.580 C 223.430 78.356,223.339 79.729,223.234 80.629 L 223.043 82.267 223.826 82.549 C 224.257 82.704,224.643 82.917,224.684 83.023 C 224.839 83.430,224.224 84.997,223.599 85.789 L 222.949 86.611 223.535 87.493 C 226.612 92.130,225.269 98.745,220.306 103.401 L 219.368 104.282 219.259 102.525 C 218.675 93.084,212.918 89.933,199.520 91.724 C 198.199 91.900,196.480 92.115,195.699 92.202 C 188.050 93.046,186.112 97.830,191.323 103.005 C 195.151 106.806,199.043 109.264,211.845 115.964 C 222.173 121.370,226.655 124.076,232.383 128.366 C 243.166 136.442,248.973 144.558,250.012 153.009 C 250.213 154.644,250.232 154.621,249.288 153.901 C 247.029 152.176,243.904 151.366,240.912 151.730 C 238.381 152.038,238.408 151.957,240.221 153.776 C 245.054 158.628,248.914 164.970,251.045 171.564 C 251.639 173.400,252.360 176.665,252.207 176.818 C 252.129 176.896,231.483 166.334,229.092 164.993 L 228.251 164.522 228.251 165.737 L 228.251 166.951 233.413 172.122 C 247.082 185.816,260.427 196.133,277.071 205.874 C 280.021 207.601,285.080 210.374,285.146 210.300 C 285.173 210.269,285.495 208.420,285.860 206.191 C 286.941 199.589,287.202 198.577,287.993 197.912 C 289.172 196.920,295.041 194.318,296.100 194.318 L 296.755 194.318 296.797 201.321 L 296.839 208.323 297.336 208.372 C 297.824 208.419,297.834 208.406,297.935 207.571 C 298.146 205.807,297.889 157.478,297.628 150.044 L 297.526 147.146 295.843 146.872 C 293.866 146.549,291.781 145.969,290.436 145.368 C 289.508 144.953,289.389 144.939,286.915 144.976 L 284.354 145.014 283.153 146.269 C 279.761 149.815,278.933 154.171,280.676 159.301 C 281.150 160.699,281.534 160.313,277.391 162.613 C 272.175 165.508,272.798 165.383,271.973 163.705 C 270.396 160.502,269.759 155.162,270.613 152.301 C 270.779 151.744,270.561 152.097,269.794 153.629 C 267.730 157.753,266.667 162.161,266.667 166.590 L 266.667 168.167 263.986 169.386 C 260.720 170.870,257.049 172.431,256.989 172.361 C 256.545 171.837,256.095 167.405,256.040 163.013 C 255.863 148.882,251.073 138.785,239.946 129.091 C 239.148 128.396,238.549 127.782,238.615 127.726 C 238.681 127.671,239.564 127.389,240.576 127.100 C 243.074 126.387,248.676 124.553,252.180 123.300 C 256.648 121.703,263.691 119.065,263.831 118.936 C 263.901 118.872,261.200 117.502,257.829 115.891 C 249.847 112.075,249.989 112.183,248.914 109.111 C 248.282 107.305,248.253 107.383,249.420 107.759 C 250.810 108.207,252.893 108.198,254.566 107.738 C 255.556 107.466,259.685 105.907,259.911 105.720 C 259.937 105.699,259.235 104.552,258.350 103.172 C 256.463 100.227,256.539 100.590,257.646 99.821 C 259.687 98.403,261.791 96.457,267.787 90.439 C 271.265 86.950,274.758 83.531,275.550 82.844 C 281.132 77.998,286.874 75.614,293.769 75.279 L 295.822 75.180 295.708 72.485 C 295.510 67.796,296.450 66.743,300.341 67.297 C 302.817 67.649,305.457 67.858,305.611 67.714 C 305.682 67.647,305.718 67.204,305.691 66.730 L 305.642 65.866 304.442 65.784 C 301.876 65.608,301.240 64.736,301.240 61.393 C 301.240 59.763,301.191 59.224,301.040 59.225 C 300.930 59.226,298.752 59.953,296.198 60.842 C 290.553 62.806,289.818 62.880,288.654 61.600 C 287.256 60.062,287.403 59.171,289.612 55.823 C 296.064 46.041,300.489 35.086,304.466 19.048 C 305.088 16.539,305.691 14.306,305.805 14.086 C 306.471 12.799,308.165 12.146,309.513 12.655 M308.060 29.092 C 306.167 35.929,302.291 45.759,299.243 51.452 C 298.586 52.679,298.069 53.705,298.095 53.730 C 298.120 53.756,299.383 53.346,300.901 52.819 C 304.496 51.570,305.510 51.615,306.621 53.071 L 307.083 53.676 307.133 56.690 L 307.182 59.704 308.453 59.704 L 309.724 59.704 309.724 56.896 C 309.724 51.713,310.796 51.015,315.982 52.822 C 317.498 53.350,318.762 53.760,318.790 53.732 C 318.818 53.704,318.301 52.668,317.640 51.429 C 314.568 45.674,310.485 35.307,308.842 29.092 C 308.684 28.497,308.512 28.011,308.458 28.011 C 308.404 28.011,308.225 28.497,308.060 29.092 M49.408 32.757 C 45.280 40.959,46.311 47.491,53.892 61.146 C 59.458 71.171,60.729 74.582,60.931 80.041 C 61.184 86.878,59.189 95.163,55.963 100.667 C 55.245 101.892,55.244 101.845,56.018 104.089 C 59.050 112.881,63.186 119.152,75.455 133.556 C 77.938 136.471,80.583 139.612,81.333 140.536 C 93.877 155.998,99.432 170.676,97.781 183.994 C 97.620 185.295,97.178 187.627,97.072 187.734 C 97.041 187.766,96.381 187.212,95.606 186.502 C 93.783 184.831,91.531 183.087,88.548 181.034 L 86.153 179.385 86.041 177.608 C 85.365 166.880,81.027 158.772,67.064 142.137 C 53.334 125.778,48.484 118.463,45.053 108.932 L 44.538 107.500 43.677 107.213 C 42.140 106.700,37.733 104.392,36.174 103.283 C 26.055 96.081,22.478 82.896,26.905 69.108 C 27.722 66.565,27.702 66.573,28.329 68.551 C 30.176 74.378,32.664 77.329,35.952 77.593 C 36.515 77.638,36.975 77.639,36.975 77.596 C 36.975 77.552,36.541 76.610,36.011 75.503 C 31.814 66.729,31.381 56.694,34.814 47.776 C 37.707 40.261,42.867 34.364,48.554 32.071 C 50.124 31.438,50.087 31.408,49.408 32.757 M201.681 34.226 C 201.681 37.724,199.396 38.687,193.512 37.666 C 184.557 36.112,179.637 37.966,179.333 43.007 L 179.248 44.418 179.748 43.537 C 181.721 40.062,187.807 38.841,194.798 40.517 C 201.466 42.117,205.267 38.816,202.108 34.169 L 201.681 33.539 201.681 34.226 M188.802 41.944 C 184.235 42.662,183.278 44.505,185.277 48.732 C 186.051 50.368,188.047 52.341,188.928 52.341 C 190.400 52.341,193.150 48.103,193.572 45.186 L 193.772 43.797 194.127 44.621 C 195.102 46.889,195.220 49.414,194.440 51.341 C 194.217 51.891,194.070 52.341,194.114 52.341 C 194.432 52.341,196.152 51.237,196.685 50.691 C 198.725 48.600,199.610 44.961,198.388 43.685 C 197.020 42.257,192.281 41.396,188.802 41.944 M201.766 61.156 C 197.492 61.808,191.491 65.905,188.410 70.273 C 187.600 71.422,186.874 72.669,187.016 72.669 C 187.054 72.669,187.685 72.383,188.420 72.034 C 193.824 69.466,202.952 69.100,218.427 70.832 C 220.374 71.050,222.051 71.228,222.152 71.228 C 222.814 71.228,219.270 66.143,218.528 66.027 C 215.073 65.489,210.470 63.945,206.723 62.070 C 204.826 61.120,203.546 60.884,201.766 61.156 M301.881 74.465 C 301.882 74.930,302.023 79.884,302.195 85.474 C 302.492 95.106,302.821 107.091,303.152 120.285 C 303.234 123.541,303.270 126.235,303.234 126.271 C 303.197 126.308,298.214 123.973,292.160 121.083 C 286.106 118.193,280.262 115.405,279.174 114.887 C 277.540 114.111,277.237 113.914,277.436 113.756 C 277.568 113.651,278.008 112.413,278.413 111.004 C 281.943 98.741,287.476 93.732,295.154 95.851 C 295.812 96.032,296.369 96.162,296.392 96.139 C 296.415 96.115,296.381 94.301,296.316 92.106 L 296.198 88.115 293.878 88.138 C 287.747 88.198,282.214 90.533,274.590 96.278 C 269.053 100.450,265.777 102.644,261.952 104.743 L 260.038 105.793 261.872 106.660 C 265.912 108.568,275.128 112.987,276.030 113.448 C 276.659 113.769,276.908 113.969,276.751 114.029 C 276.619 114.078,273.701 115.195,270.268 116.511 L 264.026 118.902 265.066 119.377 C 265.638 119.638,274.426 123.828,284.594 128.688 C 294.762 133.548,303.182 137.566,303.306 137.616 C 303.497 137.694,303.513 136.874,303.413 132.071 L 303.296 126.434 304.425 127.003 C 305.046 127.315,305.592 127.571,305.638 127.571 C 305.684 127.571,305.722 115.511,305.722 100.772 L 305.722 73.973 304.882 73.887 C 304.420 73.841,303.555 73.761,302.961 73.711 L 301.881 73.621 301.881 74.465 M313.405 73.736 C 313.009 73.764,312.307 73.829,311.845 73.880 L 311.004 73.973 311.004 90.323 C 311.004 104.989,311.029 106.638,311.247 106.327 C 311.658 105.741,312.417 105.300,313.209 105.187 L 313.966 105.079 314.005 103.720 C 314.203 96.819,314.710 79.586,314.793 76.951 L 314.896 73.629 314.511 73.657 C 314.299 73.673,313.802 73.708,313.405 73.736 M205.042 74.766 C 198.339 75.243,190.967 77.287,188.411 79.378 C 187.769 79.903,187.826 80.060,188.847 80.577 C 191.361 81.851,194.459 81.951,198.757 80.898 C 203.037 79.850,210.026 79.718,215.488 80.582 L 216.730 80.778 217.749 79.938 C 218.868 79.014,221.901 76.205,221.976 76.022 C 222.034 75.880,219.865 75.479,217.287 75.155 C 213.096 74.627,208.883 74.493,205.042 74.766 M245.920 97.679 C 246.071 98.229,246.439 99.220,246.738 99.880 C 247.249 101.008,248.434 106.961,248.196 107.200 C 247.553 107.843,241.857 101.779,241.857 100.451 C 241.857 100.278,245.380 96.679,245.549 96.679 C 245.602 96.679,245.769 97.129,245.920 97.679 M373.101 98.511 C 375.213 100.630,375.164 100.248,373.629 102.571 C 372.203 104.729,368.984 107.652,368.531 107.200 C 368.292 106.961,369.478 101.008,369.989 99.880 C 370.288 99.220,370.656 98.229,370.807 97.679 C 371.150 96.428,370.952 96.356,373.101 98.511 M253.951 97.787 C 254.979 98.241,256.583 99.823,256.583 100.382 C 256.583 101.081,251.423 102.016,249.627 101.642 C 247.381 101.176,246.952 100.677,247.819 99.547 C 249.393 97.497,251.759 96.817,253.951 97.787 M366.190 97.563 C 367.168 97.854,368.181 98.590,368.903 99.537 C 369.652 100.519,369.599 100.720,368.458 101.232 C 366.706 102.018,364.620 101.962,361.545 101.047 C 360.073 100.610,359.981 100.515,360.408 99.876 C 361.811 97.772,363.978 96.906,366.190 97.563 M325.375 106.492 C 324.935 107.189,323.160 108.964,322.292 109.577 L 321.820 109.910 323.175 110.288 C 325.959 111.065,328.748 110.790,331.693 109.448 C 333.146 108.786,332.984 108.475,330.547 107.251 C 327.542 105.742,325.993 105.514,325.375 106.492 M294.473 111.486 C 293.260 112.850,292.321 113.966,292.387 113.966 C 292.452 113.966,293.499 113.778,294.712 113.548 L 296.919 113.130 296.898 112.227 C 296.886 111.731,296.832 110.803,296.778 110.166 L 296.679 109.007 294.473 111.486 M311.004 115.907 L 311.004 122.172 311.340 121.746 C 311.712 121.273,312.748 120.688,313.214 120.688 C 313.565 120.688,313.725 118.731,313.725 114.454 L 313.725 112.111 312.935 111.508 C 312.500 111.176,311.888 110.621,311.574 110.274 L 311.004 109.643 311.004 115.907 M325.108 137.966 C 324.350 138.986,323.276 140.003,322.202 140.718 C 320.802 141.650,327.346 142.134,329.880 141.285 C 331.416 140.771,332.773 140.122,332.773 139.901 C 332.773 139.269,328.631 137.285,326.599 136.945 L 325.948 136.836 325.108 137.966 M303.555 140.736 C 303.754 146.712,303.972 167.194,304.057 187.995 L 304.145 209.444 305.054 209.572 C 305.554 209.643,307.457 209.715,309.285 209.733 L 312.607 209.764 312.678 189.272 C 312.717 178.001,312.832 162.941,312.933 155.805 L 313.118 142.831 312.119 141.884 C 311.069 140.887,310.684 140.226,310.684 139.418 L 310.684 138.929 310.004 139.282 C 308.782 139.917,307.870 139.803,305.639 138.735 C 304.581 138.229,303.657 137.815,303.586 137.815 C 303.515 137.815,303.501 139.130,303.555 140.736 M187.357 241.115 C 195.375 244.764,204.522 247.880,220.088 252.265 C 239.462 257.724,246.866 260.084,253.061 262.776 C 266.925 268.800,279.479 280.590,287.201 294.838 C 292.921 305.392,296.279 308.735,303.842 311.408 C 304.524 311.649,305.082 311.870,305.082 311.899 C 305.082 312.352,298.127 315.742,293.938 317.331 L 292.098 318.029 290.925 317.729 C 287.305 316.803,284.153 314.057,281.631 309.632 L 280.952 308.441 280.522 309.005 C 278.252 311.981,278.824 315.246,282.239 318.792 L 283.806 320.419 282.029 320.835 C 277.678 321.855,275.817 322.109,274.785 321.822 C 271.926 321.027,269.589 318.966,267.997 315.836 C 267.289 314.442,267.410 314.265,266.426 318.127 C 262.799 332.352,263.980 347.058,269.398 355.134 C 273.934 361.896,282.564 367.765,291.937 370.463 C 300.664 372.975,306.131 372.377,313.405 368.116 C 316.717 366.176,319.243 365.402,322.289 365.395 C 323.997 365.391,324.272 365.351,324.770 365.034 C 327.879 363.053,334.397 363.441,339.576 365.915 C 344.727 368.376,349.750 374.311,351.819 380.377 C 352.714 383.004,351.559 385.038,349.175 385.031 C 348.137 385.028,348.142 385.031,346.239 383.655 C 343.832 381.914,340.543 381.968,337.699 383.796 C 337.147 384.151,336.521 384.493,336.309 384.556 C 335.964 384.660,336.052 384.739,337.145 385.309 C 338.617 386.078,340.197 387.593,340.901 388.912 C 341.245 389.557,341.743 390.126,342.549 390.796 C 349.710 396.750,352.163 406.505,349.011 416.484 C 347.797 420.327,343.973 420.399,342.844 416.600 C 341.726 412.840,339.654 411.142,335.686 410.735 C 334.566 410.620,334.010 410.476,333.445 410.158 C 332.758 409.770,332.553 409.735,331.067 409.756 C 328.605 409.791,327.821 409.651,327.614 409.141 C 326.702 406.894,324.631 403.447,324.358 403.720 C 324.321 403.756,324.475 404.249,324.700 404.814 C 325.345 406.443,326.041 409.340,326.150 410.855 C 326.205 411.619,326.425 412.857,326.639 413.605 C 328.207 419.095,327.460 426.367,324.786 431.660 C 323.200 434.799,319.405 434.100,318.927 430.581 C 318.438 426.975,316.219 424.671,312.525 423.933 C 310.822 423.593,309.976 423.058,309.117 421.781 C 308.473 420.823,308.351 420.727,307.176 420.253 C 301.626 418.016,297.417 412.488,297.397 407.410 C 297.393 406.518,297.297 406.450,295.636 406.164 C 293.155 405.737,291.170 405.281,289.581 404.774 C 287.801 404.206,288.022 404.043,287.568 406.264 C 285.890 414.479,280.243 419.891,274.335 418.947 C 273.877 418.873,273.589 418.944,273.042 419.265 C 272.655 419.492,271.836 419.784,271.223 419.914 C 267.321 420.741,265.295 422.753,264.651 426.440 C 263.905 430.718,260.057 430.894,258.304 426.731 C 255.320 419.648,255.282 412.194,258.200 406.373 L 258.817 405.142 258.647 403.812 C 257.978 398.563,260.536 393.259,265.092 390.447 L 266.045 389.859 265.074 389.494 C 264.232 389.178,263.694 388.857,262.343 387.867 C 262.098 387.687,261.912 387.754,260.962 388.367 C 254.078 392.809,247.451 392.942,241.682 388.755 C 240.534 387.922,240.535 387.973,241.657 387.336 C 244.959 385.460,246.248 382.308,245.152 378.791 C 244.619 377.083,244.589 377.071,243.730 378.271 C 241.041 382.025,237.430 384.012,233.213 384.056 L 231.533 384.074 229.985 383.156 C 227.180 381.492,224.949 379.884,222.525 377.778 C 221.347 376.754,221.327 376.817,222.919 376.540 C 229.574 375.379,232.592 371.493,231.512 365.473 L 231.419 364.959 230.356 365.807 C 226.001 369.280,221.098 370.598,216.205 369.609 L 215.123 369.391 214.214 367.929 C 213.715 367.125,212.829 365.530,212.245 364.386 C 211.361 362.651,210.920 361.656,209.901 359.096 C 209.857 358.984,210.593 358.928,212.120 358.928 C 216.755 358.925,219.776 357.223,221.604 353.584 C 222.358 352.084,222.493 352.197,219.812 352.094 C 215.517 351.929,207.885 349.579,207.156 348.198 C 206.673 347.281,205.815 336.615,206.225 336.615 C 206.259 336.615,206.997 336.772,207.866 336.964 C 210.267 337.494,215.582 337.495,217.525 336.964 C 226.340 334.556,229.578 325.178,225.681 313.347 C 221.400 300.352,209.747 290.401,197.516 289.297 C 195.725 289.135,195.817 289.221,194.970 286.906 C 193.145 281.916,190.813 277.162,186.887 270.428 C 178.208 255.544,177.680 249.898,184.143 241.096 C 185.028 239.891,184.662 239.889,187.357 241.115 M303.258 257.743 C 303.206 258.645,303.087 262.049,302.995 265.306 C 302.902 268.563,302.759 272.813,302.676 274.750 C 302.593 276.687,302.524 278.673,302.523 279.163 L 302.521 280.056 304.322 279.757 C 305.478 279.565,306.925 279.458,308.363 279.458 C 309.802 279.458,311.249 279.565,312.405 279.757 L 314.206 280.056 314.205 279.324 C 314.204 278.921,314.100 275.746,313.974 272.269 C 313.847 268.792,313.702 264.326,313.651 262.345 C 313.601 260.364,313.518 258.149,313.468 257.423 L 313.377 256.102 308.364 256.102 L 303.352 256.102 303.258 257.743 M333.076 370.497 C 334.851 372.816,335.854 374.599,336.390 376.391 C 336.549 376.919,336.690 377.372,336.706 377.397 C 336.721 377.422,337.114 377.293,337.579 377.109 C 338.768 376.641,340.458 376.311,341.667 376.311 C 342.976 376.311,342.971 376.287,341.297 374.588 C 338.889 372.145,336.279 370.690,333.352 370.158 L 332.730 370.045 333.076 370.497 M329.652 383.589 C 329.017 383.798,329.023 383.800,330.372 383.812 C 331.601 383.822,331.703 383.801,331.422 383.588 C 331.048 383.306,330.511 383.306,329.652 383.589 M200.621 386.194 C 201.725 387.748,202.399 389.586,202.668 391.775 L 202.847 393.236 203.890 392.764 C 205.239 392.152,206.901 391.732,208.537 391.589 C 210.140 391.449,210.144 391.531,208.443 389.810 C 206.392 387.734,204.281 386.441,201.838 385.764 C 200.049 385.269,199.980 385.293,200.621 386.194 M336.301 394.385 C 335.425 396.022,335.461 402.080,336.359 404.230 C 336.558 404.705,336.657 404.763,337.437 404.855 C 339.450 405.094,341.781 405.989,343.382 407.140 C 344.388 407.863,344.398 407.846,344.165 405.752 C 343.742 401.946,342.540 399.403,339.840 396.600 C 337.858 394.542,336.629 393.773,336.301 394.385 M119.460 396.549 C 115.349 397.834,111.450 402.149,110.051 406.961 C 109.725 408.083,109.733 408.091,110.702 407.675 C 112.212 407.028,113.917 406.725,116.064 406.724 L 118.083 406.723 118.568 405.802 C 119.999 403.088,121.010 398.080,120.431 396.572 C 120.318 396.277,120.329 396.277,119.460 396.549 M267.524 403.997 C 266.447 404.788,264.420 407.386,263.586 409.044 C 262.536 411.129,261.830 414.901,262.094 417.016 L 262.210 417.942 262.852 417.362 C 264.110 416.225,267.401 414.410,268.214 414.405 C 268.661 414.402,269.531 414.039,269.615 413.822 C 270.330 411.959,269.912 406.544,268.880 404.282 C 268.472 403.389,268.377 403.369,267.524 403.997 M314.603 408.365 C 313.893 409.915,313.667 411.360,313.672 414.326 C 313.678 418.016,313.583 417.824,315.748 418.548 C 317.717 419.207,318.845 419.827,320.402 421.108 L 321.448 421.968 321.366 419.427 C 321.230 415.219,320.166 412.501,317.430 409.374 C 315.668 407.361,315.147 407.175,314.603 408.365 M198.863 410.498 C 198.064 412.411,198.222 418.891,199.103 420.303 C 199.176 420.421,199.815 420.618,200.523 420.741 C 202.704 421.119,204.746 421.966,206.210 423.098 C 207.022 423.726,207.057 423.642,206.830 421.599 C 206.393 417.667,205.019 414.877,202.134 412.065 C 199.890 409.877,199.251 409.571,198.863 410.498 M166.865 416.847 C 165.646 419.511,165.449 426.731,166.595 426.731 C 167.715 426.731,170.887 428.256,172.452 429.547 C 173.752 430.619,173.745 430.630,173.625 427.798 C 173.437 423.360,171.412 419.092,168.326 416.630 C 167.336 415.840,167.325 415.841,166.865 416.847 " stroke="none" fill="#000000" fill-rule="evenodd"></path></g></svg>