<?xml version="1.0" encoding="UTF-8" standalone="no"?>
<svg
   xmlns:dc="http://purl.org/dc/elements/1.1/"
   xmlns:cc="http://creativecommons.org/ns#"
   xmlns:rdf="http://www.w3.org/1999/02/22-rdf-syntax-ns#"
   xmlns:svg="http://www.w3.org/2000/svg"
   xmlns="http://www.w3.org/2000/svg"
   xmlns:sodipodi="http://sodipodi.sourceforge.net/DTD/sodipodi-0.dtd"
   xmlns:inkscape="http://www.inkscape.org/namespaces/inkscape"
   width="210mm"
   height="297mm"
   viewBox="0 0 210 297"
   version="1.1"
   id="svg8"
   inkscape:version="1.0.1 (3bc2e813f5, 2020-09-07)"
   sodipodi:docname="vulgaris.svg">
  <defs
     id="defs2" />
  <sodipodi:namedview
     id="base"
     pagecolor="#ffffff"
     bordercolor="#666666"
     borderopacity="1.0"
     inkscape:pageopacity="0.0"
     inkscape:pageshadow="2"
     inkscape:zoom="0.35"
     inkscape:cx="400"
     inkscape:cy="560"
     inkscape:document-units="mm"
     inkscape:current-layer="layer1"
     inkscape:document-rotation="0"
     showgrid="false"
     inkscape:window-width="1347"
     inkscape:window-height="1045"
     inkscape:window-x="78"
     inkscape:window-y="4"
     inkscape:window-maximized="0" />
  <metadata
     id="metadata5">
    <rdf:RDF>
      <cc:Work
         rdf:about="">
        <dc:format>image/svg+xml</dc:format>
        <dc:type
           rdf:resource="http://purl.org/dc/dcmitype/StillImage" />
        <dc:title></dc:title>
      </cc:Work>
    </rdf:RDF>
  </metadata>
  <g
     inkscape:label="Lager 1"
     inkscape:groupmode="layer"
     id="layer1">
    <path
       id="path914-7-7-0-1-1"
       style="display:inline;fill:none;stroke:#000000;stroke-width:1.5;stroke-linecap:round;stroke-linejoin:round;stroke-miterlimit:4;stroke-dasharray:none;stroke-opacity:1"
       d="m 114.05063,149.49172 c -1.25482,1.9224 -2.89925,2.87063 -4.61898,3.63081 -1.10395,0.31716 -2.26146,0.56287 -3.59878,0.56897 m -0.0147,-12.82037 c 1.44128,0.0859 2.7955,0.54437 3.56025,2.30841 m -3.55129,5.26431 c 1.80087,-0.0376 2.54974,-0.72648 3.29065,-1.70003 m 4.93339,2.7479 c 6.0998,0.78995 10.81793,2.18326 7.56461,7.05652 -5.2101,6.18332 -10.49984,-1.5986 -12.18358,-3.42571 5.86972,9.76569 0.33319,13.53743 -3.61017,10.24785 m 0.002,-17.27672 c 0.85115,-1.49226 2.37122,-2.48157 3.55398,-2.91412 3.61993,-1.32421 7.51249,1.87618 4.67273,6.31218 -1.58395,-1.13564 -3.20781,-2.12687 -4.93338,-2.7479 -0.97015,-0.3491 -2.24765,-0.57501 -3.29336,-0.65016 z m -8.208963,3.39806 c 1.25483,1.9224 2.899303,2.87063 4.618923,3.63081 1.10402,0.31716 2.26146,0.56287 3.59889,0.56897 m -0.0149,-12.82037 c -1.4102,0.11695 -2.76496,0.54437 -3.52967,2.30841 m 3.53866,5.26431 c -1.82163,-0.0376 -2.53718,-0.72648 -3.27809,-1.70003 m -4.933393,2.7479 c -6.0998,0.78995 -10.81791,2.18326 -7.56461,7.05652 5.21013,6.18332 10.499853,-1.5986 12.183593,-3.42571 -5.869733,9.76569 -0.35624,13.53743 3.58727,10.24785 m 0.002,-17.27672 c -0.85127,-1.49226 -2.35303,-2.48157 -3.53584,-2.91412 -3.619973,-1.32421 -7.512473,1.87618 -4.672693,6.31218 1.58379,-1.13564 3.207563,-2.12687 4.933313,-2.7479 0.97023,-0.3491 2.22949,-0.57501 3.27523,-0.65016 z" />
  </g>
</svg>
