M48
; DRILL file {KiCad (6.0.8)} date Sat Dec 17 17:30:58 2022
; FORMAT={-:-/ absolute / inch / decimal}
; #@! TF.CreationDate,2022-12-17T17:30:58+01:00
; #@! TF.GenerationSoftware,Kicad,Pcbnew,(6.0.8)
; #@! TF.FileFunction,Plated,1,2,PTH
FMAT,2
INCH
; #@! TA.AperFunction,Plated,PTH,ViaDrill
T1C0.0118
; #@! TA.AperFunction,Plated,PTH,ComponentDrill
T2C0.0394
; #@! TA.AperFunction,Plated,PTH,ComponentDrill
T3C0.0512
; #@! TA.AperFunction,Plated,PTH,ComponentDrill
T4C0.0984
%
G90
G05
T1
X5.3631Y-4.0079
X5.376Y-2.9449
X5.376Y-2.9803
X5.4025Y-3.6418
X5.4685Y-3.5463
X5.5226Y-4.065
X5.5337Y-3.5463
X5.599Y-3.5463
X5.6427Y-3.9863
X5.6642Y-3.5463
X5.7323Y-2.9823
X5.8024Y-4.5861
X5.8476Y-3.1378
X5.9577Y-2.6024
X5.9771Y-3.5932
X5.9795Y-4.0124
X5.995Y-4.2609
X5.995Y-4.2255
X5.997Y-3.7894
X5.9971Y-2.6024
X6.0081Y-3.9719
X6.0087Y-3.672
X6.0185Y-3.5955
X6.0334Y-4.2609
X6.0384Y-2.6024
X6.0458Y-3.672
X6.065Y-4.2264
X6.0745Y-3.9781
X6.0745Y-4.0337
X6.0876Y-3.0482
X6.1024Y-4.1166
X6.1056Y-4.1895
X6.1302Y-3.9781
X6.1302Y-4.0337
X6.1477Y-4.097
X6.1604Y-4.2973
X6.1974Y-4.4961
X6.2047Y-4.1666
X6.2146Y-4.0059
X6.2154Y-2.4311
X6.2498Y-4.197
X6.2529Y-2.6241
X6.312Y-4.1457
X6.6624Y-4.3386
X6.8631Y-2.6477
X6.9517Y-3.6221
X6.9764Y-3.3307
T2
X5.1524Y-3.2411
X5.1524Y-3.3411
X5.1524Y-3.4411
X5.1524Y-3.5411
X5.1524Y-3.6411
X5.1524Y-3.7411
X5.1524Y-3.8411
X5.1524Y-3.9411
X5.1524Y-4.1411
X5.1524Y-4.2411
X5.1524Y-4.3411
X5.1524Y-4.4411
X5.1524Y-4.5411
X5.1524Y-4.6411
X5.3528Y-4.5402
X5.4528Y-4.5402
X5.5528Y-4.5402
X5.6528Y-4.5402
X5.7528Y-4.5402
X5.8528Y-4.5402
X5.9528Y-4.5402
X6.0528Y-4.5402
X6.1528Y-4.5402
X6.385Y-2.2406
X6.6821Y-4.627
X6.7252Y-2.2406
X6.7821Y-4.627
X6.8821Y-4.627
X7.0524Y-2.8813
X7.0524Y-2.9813
X7.0524Y-3.0813
X7.0524Y-3.1813
X7.0524Y-3.2813
X7.0524Y-3.3813
X7.0524Y-3.4813
X7.0524Y-3.5813
X7.0524Y-3.6813
X7.0524Y-3.7813
X7.0524Y-3.9411
X7.0524Y-4.0411
X7.0524Y-4.1411
X7.0524Y-4.2411
X7.0524Y-4.3411
X7.0524Y-4.4411
X7.0524Y-4.5411
X7.0524Y-4.6411
T3
X6.3799Y-2.4052
X6.7303Y-2.4052
T4
X5.1791Y-2.4902
X5.3642Y-2.372
X5.3642Y-2.6083
T0
M30
