%TF.GenerationSoftware,KiCad,Pcbnew,(6.0.8)*%
%TF.CreationDate,2022-12-17T17:30:58+01:00*%
%TF.ProjectId,anac_2040,616e6163-5f32-4303-9430-2e6b69636164,rev?*%
%TF.SameCoordinates,Original*%
%TF.FileFunction,Drillmap*%
%TF.FilePolarity,Positive*%
%FSLAX45Y45*%
G04 Gerber Fmt 4.5, Leading zero omitted, Abs format (unit mm)*
G04 Created by KiCad (PCBNEW (6.0.8)) date 2022-12-17 17:30:58*
%MOMM*%
%LPD*%
G01*
G04 APERTURE LIST*
%ADD10C,0.200000*%
%ADD11C,0.100000*%
%ADD12C,0.065000*%
G04 APERTURE END LIST*
D10*
X16550000Y-12045000D02*
G75*
G03*
X16550000Y-12045000I-160000J0D01*
G01*
X13245000Y-6835000D02*
G75*
G03*
X13245000Y-6835000I-160000J0D01*
G01*
D11*
X18162400Y-5470100D02*
X12837400Y-5470100D01*
D10*
X13755000Y-12045000D02*
G75*
G03*
X13755000Y-12045000I-160000J0D01*
G01*
X18070000Y-6960000D02*
G75*
G03*
X18070000Y-6960000I-160000J0D01*
G01*
D11*
X13100000Y-12020100D02*
X13372400Y-12295100D01*
X18012400Y-12020100D02*
X18162400Y-11870000D01*
X18162400Y-11870000D02*
X18162400Y-5470100D01*
X16862400Y-12020100D02*
X18012400Y-12020100D01*
X13372400Y-12295100D02*
X16592400Y-12295100D01*
X12837400Y-12020100D02*
X13100000Y-12020100D01*
X16592400Y-12295100D02*
X16862400Y-12020100D01*
X12837400Y-5470100D02*
X12837400Y-12020100D01*
D10*
D12*
X16327500Y-6023750D02*
X16392500Y-6088750D01*
X16392500Y-6023750D02*
X16327500Y-6088750D01*
X16907500Y-6023750D02*
X16972500Y-6088750D01*
X16972500Y-6023750D02*
X16907500Y-6088750D01*
D10*
X13090019Y-12610576D02*
X13090019Y-12410576D01*
X13137638Y-12410576D01*
X13166209Y-12420100D01*
X13185257Y-12439148D01*
X13194781Y-12458195D01*
X13204305Y-12496290D01*
X13204305Y-12524862D01*
X13194781Y-12562957D01*
X13185257Y-12582005D01*
X13166209Y-12601052D01*
X13137638Y-12610576D01*
X13090019Y-12610576D01*
X13290019Y-12610576D02*
X13290019Y-12477243D01*
X13290019Y-12515338D02*
X13299543Y-12496290D01*
X13309067Y-12486767D01*
X13328114Y-12477243D01*
X13347162Y-12477243D01*
X13413828Y-12610576D02*
X13413828Y-12477243D01*
X13413828Y-12410576D02*
X13404305Y-12420100D01*
X13413828Y-12429624D01*
X13423352Y-12420100D01*
X13413828Y-12410576D01*
X13413828Y-12429624D01*
X13537638Y-12610576D02*
X13518590Y-12601052D01*
X13509067Y-12582005D01*
X13509067Y-12410576D01*
X13642400Y-12610576D02*
X13623352Y-12601052D01*
X13613828Y-12582005D01*
X13613828Y-12410576D01*
X13870971Y-12610576D02*
X13870971Y-12410576D01*
X13937638Y-12553433D01*
X14004305Y-12410576D01*
X14004305Y-12610576D01*
X14185257Y-12610576D02*
X14185257Y-12505814D01*
X14175733Y-12486767D01*
X14156686Y-12477243D01*
X14118590Y-12477243D01*
X14099543Y-12486767D01*
X14185257Y-12601052D02*
X14166209Y-12610576D01*
X14118590Y-12610576D01*
X14099543Y-12601052D01*
X14090019Y-12582005D01*
X14090019Y-12562957D01*
X14099543Y-12543909D01*
X14118590Y-12534386D01*
X14166209Y-12534386D01*
X14185257Y-12524862D01*
X14280495Y-12477243D02*
X14280495Y-12677243D01*
X14280495Y-12486767D02*
X14299543Y-12477243D01*
X14337638Y-12477243D01*
X14356686Y-12486767D01*
X14366209Y-12496290D01*
X14375733Y-12515338D01*
X14375733Y-12572481D01*
X14366209Y-12591528D01*
X14356686Y-12601052D01*
X14337638Y-12610576D01*
X14299543Y-12610576D01*
X14280495Y-12601052D01*
X14461448Y-12591528D02*
X14470971Y-12601052D01*
X14461448Y-12610576D01*
X14451924Y-12601052D01*
X14461448Y-12591528D01*
X14461448Y-12610576D01*
X14461448Y-12486767D02*
X14470971Y-12496290D01*
X14461448Y-12505814D01*
X14451924Y-12496290D01*
X14461448Y-12486767D01*
X14461448Y-12505814D01*
D12*
X12767400Y-12907600D02*
X12832400Y-12972600D01*
X12832400Y-12907600D02*
X12767400Y-12972600D01*
D10*
X13128114Y-12830576D02*
X13147162Y-12830576D01*
X13166209Y-12840100D01*
X13175733Y-12849624D01*
X13185257Y-12868671D01*
X13194781Y-12906767D01*
X13194781Y-12954386D01*
X13185257Y-12992481D01*
X13175733Y-13011528D01*
X13166209Y-13021052D01*
X13147162Y-13030576D01*
X13128114Y-13030576D01*
X13109067Y-13021052D01*
X13099543Y-13011528D01*
X13090019Y-12992481D01*
X13080495Y-12954386D01*
X13080495Y-12906767D01*
X13090019Y-12868671D01*
X13099543Y-12849624D01*
X13109067Y-12840100D01*
X13128114Y-12830576D01*
X13280495Y-13011528D02*
X13290019Y-13021052D01*
X13280495Y-13030576D01*
X13270971Y-13021052D01*
X13280495Y-13011528D01*
X13280495Y-13030576D01*
X13461448Y-12830576D02*
X13423352Y-12830576D01*
X13404305Y-12840100D01*
X13394781Y-12849624D01*
X13375733Y-12878195D01*
X13366209Y-12916290D01*
X13366209Y-12992481D01*
X13375733Y-13011528D01*
X13385257Y-13021052D01*
X13404305Y-13030576D01*
X13442400Y-13030576D01*
X13461448Y-13021052D01*
X13470971Y-13011528D01*
X13480495Y-12992481D01*
X13480495Y-12944862D01*
X13470971Y-12925814D01*
X13461448Y-12916290D01*
X13442400Y-12906767D01*
X13404305Y-12906767D01*
X13385257Y-12916290D01*
X13375733Y-12925814D01*
X13366209Y-12944862D01*
X13661448Y-12830576D02*
X13566209Y-12830576D01*
X13556686Y-12925814D01*
X13566209Y-12916290D01*
X13585257Y-12906767D01*
X13632876Y-12906767D01*
X13651924Y-12916290D01*
X13661448Y-12925814D01*
X13670971Y-12944862D01*
X13670971Y-12992481D01*
X13661448Y-13011528D01*
X13651924Y-13021052D01*
X13632876Y-13030576D01*
X13585257Y-13030576D01*
X13566209Y-13021052D01*
X13556686Y-13011528D01*
X13794781Y-12830576D02*
X13813828Y-12830576D01*
X13832876Y-12840100D01*
X13842400Y-12849624D01*
X13851924Y-12868671D01*
X13861448Y-12906767D01*
X13861448Y-12954386D01*
X13851924Y-12992481D01*
X13842400Y-13011528D01*
X13832876Y-13021052D01*
X13813828Y-13030576D01*
X13794781Y-13030576D01*
X13775733Y-13021052D01*
X13766209Y-13011528D01*
X13756686Y-12992481D01*
X13747162Y-12954386D01*
X13747162Y-12906767D01*
X13756686Y-12868671D01*
X13766209Y-12849624D01*
X13775733Y-12840100D01*
X13794781Y-12830576D01*
X13947162Y-13030576D02*
X13947162Y-12897243D01*
X13947162Y-12916290D02*
X13956686Y-12906767D01*
X13975733Y-12897243D01*
X14004305Y-12897243D01*
X14023352Y-12906767D01*
X14032876Y-12925814D01*
X14032876Y-13030576D01*
X14032876Y-12925814D02*
X14042400Y-12906767D01*
X14061448Y-12897243D01*
X14090019Y-12897243D01*
X14109067Y-12906767D01*
X14118590Y-12925814D01*
X14118590Y-13030576D01*
X14213828Y-13030576D02*
X14213828Y-12897243D01*
X14213828Y-12916290D02*
X14223352Y-12906767D01*
X14242400Y-12897243D01*
X14270971Y-12897243D01*
X14290019Y-12906767D01*
X14299543Y-12925814D01*
X14299543Y-13030576D01*
X14299543Y-12925814D02*
X14309067Y-12906767D01*
X14328114Y-12897243D01*
X14356686Y-12897243D01*
X14375733Y-12906767D01*
X14385257Y-12925814D01*
X14385257Y-13030576D01*
X14775733Y-12821052D02*
X14604305Y-13078195D01*
X15032876Y-12830576D02*
X15051924Y-12830576D01*
X15070971Y-12840100D01*
X15080495Y-12849624D01*
X15090019Y-12868671D01*
X15099543Y-12906767D01*
X15099543Y-12954386D01*
X15090019Y-12992481D01*
X15080495Y-13011528D01*
X15070971Y-13021052D01*
X15051924Y-13030576D01*
X15032876Y-13030576D01*
X15013828Y-13021052D01*
X15004305Y-13011528D01*
X14994781Y-12992481D01*
X14985257Y-12954386D01*
X14985257Y-12906767D01*
X14994781Y-12868671D01*
X15004305Y-12849624D01*
X15013828Y-12840100D01*
X15032876Y-12830576D01*
X15185257Y-13011528D02*
X15194781Y-13021052D01*
X15185257Y-13030576D01*
X15175733Y-13021052D01*
X15185257Y-13011528D01*
X15185257Y-13030576D01*
X15318590Y-12830576D02*
X15337638Y-12830576D01*
X15356686Y-12840100D01*
X15366209Y-12849624D01*
X15375733Y-12868671D01*
X15385257Y-12906767D01*
X15385257Y-12954386D01*
X15375733Y-12992481D01*
X15366209Y-13011528D01*
X15356686Y-13021052D01*
X15337638Y-13030576D01*
X15318590Y-13030576D01*
X15299543Y-13021052D01*
X15290019Y-13011528D01*
X15280495Y-12992481D01*
X15270971Y-12954386D01*
X15270971Y-12906767D01*
X15280495Y-12868671D01*
X15290019Y-12849624D01*
X15299543Y-12840100D01*
X15318590Y-12830576D01*
X15461448Y-12849624D02*
X15470971Y-12840100D01*
X15490019Y-12830576D01*
X15537638Y-12830576D01*
X15556686Y-12840100D01*
X15566209Y-12849624D01*
X15575733Y-12868671D01*
X15575733Y-12887719D01*
X15566209Y-12916290D01*
X15451924Y-13030576D01*
X15575733Y-13030576D01*
X15756686Y-12830576D02*
X15661448Y-12830576D01*
X15651924Y-12925814D01*
X15661448Y-12916290D01*
X15680495Y-12906767D01*
X15728114Y-12906767D01*
X15747162Y-12916290D01*
X15756686Y-12925814D01*
X15766209Y-12944862D01*
X15766209Y-12992481D01*
X15756686Y-13011528D01*
X15747162Y-13021052D01*
X15728114Y-13030576D01*
X15680495Y-13030576D01*
X15661448Y-13021052D01*
X15651924Y-13011528D01*
X15937638Y-12830576D02*
X15899543Y-12830576D01*
X15880495Y-12840100D01*
X15870971Y-12849624D01*
X15851924Y-12878195D01*
X15842400Y-12916290D01*
X15842400Y-12992481D01*
X15851924Y-13011528D01*
X15861448Y-13021052D01*
X15880495Y-13030576D01*
X15918590Y-13030576D01*
X15937638Y-13021052D01*
X15947162Y-13011528D01*
X15956686Y-12992481D01*
X15956686Y-12944862D01*
X15947162Y-12925814D01*
X15937638Y-12916290D01*
X15918590Y-12906767D01*
X15880495Y-12906767D01*
X15861448Y-12916290D01*
X15851924Y-12925814D01*
X15842400Y-12944862D01*
X16032876Y-12830576D02*
X16032876Y-12868671D01*
X16109067Y-12830576D02*
X16109067Y-12868671D01*
X16404305Y-13106767D02*
X16394781Y-13097243D01*
X16375733Y-13068671D01*
X16366209Y-13049624D01*
X16356686Y-13021052D01*
X16347162Y-12973433D01*
X16347162Y-12935338D01*
X16356686Y-12887719D01*
X16366209Y-12859148D01*
X16375733Y-12840100D01*
X16394781Y-12811528D01*
X16404305Y-12802005D01*
X16470971Y-12849624D02*
X16480495Y-12840100D01*
X16499543Y-12830576D01*
X16547162Y-12830576D01*
X16566209Y-12840100D01*
X16575733Y-12849624D01*
X16585257Y-12868671D01*
X16585257Y-12887719D01*
X16575733Y-12916290D01*
X16461448Y-13030576D01*
X16585257Y-13030576D01*
X16823352Y-13030576D02*
X16823352Y-12830576D01*
X16909067Y-13030576D02*
X16909067Y-12925814D01*
X16899543Y-12906767D01*
X16880495Y-12897243D01*
X16851924Y-12897243D01*
X16832876Y-12906767D01*
X16823352Y-12916290D01*
X17032876Y-13030576D02*
X17013829Y-13021052D01*
X17004305Y-13011528D01*
X16994781Y-12992481D01*
X16994781Y-12935338D01*
X17004305Y-12916290D01*
X17013829Y-12906767D01*
X17032876Y-12897243D01*
X17061448Y-12897243D01*
X17080495Y-12906767D01*
X17090019Y-12916290D01*
X17099543Y-12935338D01*
X17099543Y-12992481D01*
X17090019Y-13011528D01*
X17080495Y-13021052D01*
X17061448Y-13030576D01*
X17032876Y-13030576D01*
X17213829Y-13030576D02*
X17194781Y-13021052D01*
X17185257Y-13002005D01*
X17185257Y-12830576D01*
X17366210Y-13021052D02*
X17347162Y-13030576D01*
X17309067Y-13030576D01*
X17290019Y-13021052D01*
X17280495Y-13002005D01*
X17280495Y-12925814D01*
X17290019Y-12906767D01*
X17309067Y-12897243D01*
X17347162Y-12897243D01*
X17366210Y-12906767D01*
X17375733Y-12925814D01*
X17375733Y-12944862D01*
X17280495Y-12963909D01*
X17451924Y-13021052D02*
X17470971Y-13030576D01*
X17509067Y-13030576D01*
X17528114Y-13021052D01*
X17537638Y-13002005D01*
X17537638Y-12992481D01*
X17528114Y-12973433D01*
X17509067Y-12963909D01*
X17480495Y-12963909D01*
X17461448Y-12954386D01*
X17451924Y-12935338D01*
X17451924Y-12925814D01*
X17461448Y-12906767D01*
X17480495Y-12897243D01*
X17509067Y-12897243D01*
X17528114Y-12906767D01*
X17604305Y-13106767D02*
X17613829Y-13097243D01*
X17632876Y-13068671D01*
X17642400Y-13049624D01*
X17651924Y-13021052D01*
X17661448Y-12973433D01*
X17661448Y-12935338D01*
X17651924Y-12887719D01*
X17642400Y-12859148D01*
X17632876Y-12840100D01*
X17613829Y-12811528D01*
X17604305Y-12802005D01*
X17966210Y-13106767D02*
X17956686Y-13097243D01*
X17937638Y-13068671D01*
X17928114Y-13049624D01*
X17918590Y-13021052D01*
X17909067Y-12973433D01*
X17909067Y-12935338D01*
X17918590Y-12887719D01*
X17928114Y-12859148D01*
X17937638Y-12840100D01*
X17956686Y-12811528D01*
X17966210Y-12802005D01*
X18042400Y-12897243D02*
X18042400Y-13030576D01*
X18042400Y-12916290D02*
X18051924Y-12906767D01*
X18070971Y-12897243D01*
X18099543Y-12897243D01*
X18118590Y-12906767D01*
X18128114Y-12925814D01*
X18128114Y-13030576D01*
X18251924Y-13030576D02*
X18232876Y-13021052D01*
X18223352Y-13011528D01*
X18213829Y-12992481D01*
X18213829Y-12935338D01*
X18223352Y-12916290D01*
X18232876Y-12906767D01*
X18251924Y-12897243D01*
X18280495Y-12897243D01*
X18299543Y-12906767D01*
X18309067Y-12916290D01*
X18318590Y-12935338D01*
X18318590Y-12992481D01*
X18309067Y-13011528D01*
X18299543Y-13021052D01*
X18280495Y-13030576D01*
X18251924Y-13030576D01*
X18375733Y-12897243D02*
X18451924Y-12897243D01*
X18404305Y-12830576D02*
X18404305Y-13002005D01*
X18413829Y-13021052D01*
X18432876Y-13030576D01*
X18451924Y-13030576D01*
X18670971Y-12897243D02*
X18670971Y-13097243D01*
X18670971Y-12906767D02*
X18690019Y-12897243D01*
X18728114Y-12897243D01*
X18747162Y-12906767D01*
X18756686Y-12916290D01*
X18766210Y-12935338D01*
X18766210Y-12992481D01*
X18756686Y-13011528D01*
X18747162Y-13021052D01*
X18728114Y-13030576D01*
X18690019Y-13030576D01*
X18670971Y-13021052D01*
X18880495Y-13030576D02*
X18861448Y-13021052D01*
X18851924Y-13002005D01*
X18851924Y-12830576D01*
X19042400Y-13030576D02*
X19042400Y-12925814D01*
X19032876Y-12906767D01*
X19013829Y-12897243D01*
X18975733Y-12897243D01*
X18956686Y-12906767D01*
X19042400Y-13021052D02*
X19023352Y-13030576D01*
X18975733Y-13030576D01*
X18956686Y-13021052D01*
X18947162Y-13002005D01*
X18947162Y-12982957D01*
X18956686Y-12963909D01*
X18975733Y-12954386D01*
X19023352Y-12954386D01*
X19042400Y-12944862D01*
X19109067Y-12897243D02*
X19185257Y-12897243D01*
X19137638Y-12830576D02*
X19137638Y-13002005D01*
X19147162Y-13021052D01*
X19166210Y-13030576D01*
X19185257Y-13030576D01*
X19328114Y-13021052D02*
X19309067Y-13030576D01*
X19270971Y-13030576D01*
X19251924Y-13021052D01*
X19242400Y-13002005D01*
X19242400Y-12925814D01*
X19251924Y-12906767D01*
X19270971Y-12897243D01*
X19309067Y-12897243D01*
X19328114Y-12906767D01*
X19337638Y-12925814D01*
X19337638Y-12944862D01*
X19242400Y-12963909D01*
X19509067Y-13030576D02*
X19509067Y-12830576D01*
X19509067Y-13021052D02*
X19490019Y-13030576D01*
X19451924Y-13030576D01*
X19432876Y-13021052D01*
X19423352Y-13011528D01*
X19413829Y-12992481D01*
X19413829Y-12935338D01*
X19423352Y-12916290D01*
X19432876Y-12906767D01*
X19451924Y-12897243D01*
X19490019Y-12897243D01*
X19509067Y-12906767D01*
X19585257Y-13106767D02*
X19594781Y-13097243D01*
X19613829Y-13068671D01*
X19623352Y-13049624D01*
X19632876Y-13021052D01*
X19642400Y-12973433D01*
X19642400Y-12935338D01*
X19632876Y-12887719D01*
X19623352Y-12859148D01*
X19613829Y-12840100D01*
X19594781Y-12811528D01*
X19585257Y-12802005D01*
M02*
