%TF.GenerationSoftware,KiCad,Pcbnew,(6.0.8)*%
%TF.CreationDate,2022-12-17T17:30:56+01:00*%
%TF.ProjectId,anac_2040,616e6163-5f32-4303-9430-2e6b69636164,rev?*%
%TF.SameCoordinates,Original*%
%TF.FileFunction,Paste,Top*%
%TF.FilePolarity,Positive*%
%FSLAX46Y46*%
G04 Gerber Fmt 4.6, Leading zero omitted, Abs format (unit mm)*
G04 Created by KiCad (PCBNEW (6.0.8)) date 2022-12-17 17:30:56*
%MOMM*%
%LPD*%
G01*
G04 APERTURE LIST*
G04 Aperture macros list*
%AMRoundRect*
0 Rectangle with rounded corners*
0 $1 Rounding radius*
0 $2 $3 $4 $5 $6 $7 $8 $9 X,Y pos of 4 corners*
0 Add a 4 corners polygon primitive as box body*
4,1,4,$2,$3,$4,$5,$6,$7,$8,$9,$2,$3,0*
0 Add four circle primitives for the rounded corners*
1,1,$1+$1,$2,$3*
1,1,$1+$1,$4,$5*
1,1,$1+$1,$6,$7*
1,1,$1+$1,$8,$9*
0 Add four rect primitives between the rounded corners*
20,1,$1+$1,$2,$3,$4,$5,0*
20,1,$1+$1,$4,$5,$6,$7,0*
20,1,$1+$1,$6,$7,$8,$9,0*
20,1,$1+$1,$8,$9,$2,$3,0*%
%AMOutline5P*
0 Free polygon, 5 corners , with rotation*
0 The origin of the aperture is its center*
0 number of corners: always 5*
0 $1 to $10 corner X, Y*
0 $11 Rotation angle, in degrees counterclockwise*
0 create outline with 5 corners*
4,1,5,$1,$2,$3,$4,$5,$6,$7,$8,$9,$10,$1,$2,$11*%
%AMOutline6P*
0 Free polygon, 6 corners , with rotation*
0 The origin of the aperture is its center*
0 number of corners: always 6*
0 $1 to $12 corner X, Y*
0 $13 Rotation angle, in degrees counterclockwise*
0 create outline with 6 corners*
4,1,6,$1,$2,$3,$4,$5,$6,$7,$8,$9,$10,$11,$12,$1,$2,$13*%
%AMOutline7P*
0 Free polygon, 7 corners , with rotation*
0 The origin of the aperture is its center*
0 number of corners: always 7*
0 $1 to $14 corner X, Y*
0 $15 Rotation angle, in degrees counterclockwise*
0 create outline with 7 corners*
4,1,7,$1,$2,$3,$4,$5,$6,$7,$8,$9,$10,$11,$12,$13,$14,$1,$2,$15*%
%AMOutline8P*
0 Free polygon, 8 corners , with rotation*
0 The origin of the aperture is its center*
0 number of corners: always 8*
0 $1 to $16 corner X, Y*
0 $17 Rotation angle, in degrees counterclockwise*
0 create outline with 8 corners*
4,1,8,$1,$2,$3,$4,$5,$6,$7,$8,$9,$10,$11,$12,$13,$14,$15,$16,$1,$2,$17*%
G04 Aperture macros list end*
%ADD10RoundRect,0.218750X0.218750X0.256250X-0.218750X0.256250X-0.218750X-0.256250X0.218750X-0.256250X0*%
%ADD11RoundRect,0.218750X-0.256250X0.218750X-0.256250X-0.218750X0.256250X-0.218750X0.256250X0.218750X0*%
%ADD12Outline5P,-0.275000X0.712500X0.275000X0.712500X0.275000X-0.712500X0.000000X-0.712500X-0.275000X-0.437500X180.000000*%
%ADD13R,0.250000X1.450000*%
%ADD14Outline5P,-0.275000X0.712500X0.275000X0.712500X0.275000X-0.437500X0.000000X-0.712500X-0.275000X-0.712500X180.000000*%
%ADD15R,0.550000X1.125000*%
%ADD16R,0.300000X1.450000*%
%ADD17R,0.550000X1.075000*%
%ADD18RoundRect,0.200000X-0.275000X0.200000X-0.275000X-0.200000X0.275000X-0.200000X0.275000X0.200000X0*%
%ADD19RoundRect,0.150000X0.650000X0.150000X-0.650000X0.150000X-0.650000X-0.150000X0.650000X-0.150000X0*%
%ADD20RoundRect,0.225000X-0.250000X0.225000X-0.250000X-0.225000X0.250000X-0.225000X0.250000X0.225000X0*%
%ADD21RoundRect,0.225000X-0.017678X0.335876X-0.335876X0.017678X0.017678X-0.335876X0.335876X-0.017678X0*%
%ADD22RoundRect,0.200000X0.275000X-0.200000X0.275000X0.200000X-0.275000X0.200000X-0.275000X-0.200000X0*%
%ADD23RoundRect,0.249999X0.000000X0.558616X-0.558616X0.000000X0.000000X-0.558616X0.558616X0.000000X0*%
%ADD24RoundRect,0.050000X0.238649X0.309359X-0.309359X-0.238649X-0.238649X-0.309359X0.309359X0.238649X0*%
%ADD25RoundRect,0.050000X-0.238649X0.309359X-0.309359X0.238649X0.238649X-0.309359X0.309359X-0.238649X0*%
%ADD26RoundRect,0.225000X0.017678X-0.335876X0.335876X-0.017678X-0.017678X0.335876X-0.335876X0.017678X0*%
%ADD27R,5.100000X2.350000*%
%ADD28RoundRect,0.225000X0.250000X-0.225000X0.250000X0.225000X-0.250000X0.225000X-0.250000X-0.225000X0*%
%ADD29R,1.300000X1.550000*%
%ADD30RoundRect,0.225000X-0.225000X-0.250000X0.225000X-0.250000X0.225000X0.250000X-0.225000X0.250000X0*%
%ADD31RoundRect,0.150000X-0.150000X0.587500X-0.150000X-0.587500X0.150000X-0.587500X0.150000X0.587500X0*%
%ADD32R,0.450000X0.600000*%
%ADD33RoundRect,0.500000X0.500000X-1.250000X0.500000X1.250000X-0.500000X1.250000X-0.500000X-1.250000X0*%
%ADD34RoundRect,0.500000X0.500000X-2.500000X0.500000X2.500000X-0.500000X2.500000X-0.500000X-2.500000X0*%
%ADD35RoundRect,0.225000X-0.335876X-0.017678X-0.017678X-0.335876X0.335876X0.017678X0.017678X0.335876X0*%
%ADD36RoundRect,0.250000X0.550000X-1.050000X0.550000X1.050000X-0.550000X1.050000X-0.550000X-1.050000X0*%
%ADD37RoundRect,0.150000X-0.150000X0.350000X-0.150000X-0.350000X0.150000X-0.350000X0.150000X0.350000X0*%
%ADD38RoundRect,0.250000X-0.625000X0.375000X-0.625000X-0.375000X0.625000X-0.375000X0.625000X0.375000X0*%
%ADD39R,1.200000X3.500000*%
%ADD40RoundRect,0.200000X-0.200000X-0.275000X0.200000X-0.275000X0.200000X0.275000X-0.200000X0.275000X0*%
%ADD41R,0.600000X0.450000*%
G04 APERTURE END LIST*
D10*
%TO.C,D4*%
X165011500Y-116501000D03*
X163436500Y-116501000D03*
%TD*%
D11*
%TO.C,D2*%
X168950000Y-81687500D03*
X168950000Y-80112500D03*
%TD*%
%TO.C,D3*%
X171200000Y-80112500D03*
X171200000Y-81687500D03*
%TD*%
D12*
%TO.C,J7*%
X169725000Y-62025000D03*
D13*
X169075000Y-62012500D03*
X167750000Y-62012500D03*
X166750000Y-62012500D03*
X166250000Y-62012500D03*
X165250000Y-62012500D03*
X163925000Y-62012500D03*
D14*
X163275000Y-62025000D03*
D15*
X163275000Y-62175000D03*
D16*
X164200000Y-62012500D03*
D13*
X164750000Y-62012500D03*
X165750000Y-62012500D03*
X167250000Y-62012500D03*
X168250000Y-62012500D03*
D16*
X168800000Y-62012500D03*
D17*
X169725000Y-62200000D03*
%TD*%
D18*
%TO.C,R12*%
X159674000Y-118976000D03*
X159674000Y-120626000D03*
%TD*%
D19*
%TO.C,U2*%
X167100000Y-114405000D03*
X167100000Y-113135000D03*
X167100000Y-111865000D03*
X167100000Y-110595000D03*
X159900000Y-110595000D03*
X159900000Y-111865000D03*
X159900000Y-113135000D03*
X159900000Y-114405000D03*
%TD*%
D20*
%TO.C,C2*%
X143949000Y-83451000D03*
X143949000Y-85001000D03*
%TD*%
D21*
%TO.C,C4*%
X160822008Y-106202992D03*
X159725992Y-107299008D03*
%TD*%
D20*
%TO.C,C16*%
X155150000Y-66025000D03*
X155150000Y-67575000D03*
%TD*%
D22*
%TO.C,R11*%
X171200000Y-77875000D03*
X171200000Y-76225000D03*
%TD*%
D18*
%TO.C,R8*%
X137224000Y-98026000D03*
X137224000Y-99676000D03*
%TD*%
D23*
%TO.C,U1*%
X153868629Y-101750000D03*
X155000000Y-102881371D03*
X155000000Y-100618629D03*
X156131371Y-101750000D03*
D24*
X159269157Y-101157798D03*
X158986314Y-100874955D03*
X158703472Y-100592113D03*
X158420629Y-100309270D03*
X158137786Y-100026427D03*
X157854944Y-99743585D03*
X157572101Y-99460742D03*
X157289258Y-99177899D03*
X157006415Y-98895056D03*
X156723573Y-98612214D03*
X156440730Y-98329371D03*
X156157887Y-98046528D03*
X155875045Y-97763686D03*
X155592202Y-97480843D03*
D25*
X154407798Y-97480843D03*
X154124955Y-97763686D03*
X153842113Y-98046528D03*
X153559270Y-98329371D03*
X153276427Y-98612214D03*
X152993585Y-98895056D03*
X152710742Y-99177899D03*
X152427899Y-99460742D03*
X152145056Y-99743585D03*
X151862214Y-100026427D03*
X151579371Y-100309270D03*
X151296528Y-100592113D03*
X151013686Y-100874955D03*
X150730843Y-101157798D03*
D24*
X150730843Y-102342202D03*
X151013686Y-102625045D03*
X151296528Y-102907887D03*
X151579371Y-103190730D03*
X151862214Y-103473573D03*
X152145056Y-103756415D03*
X152427899Y-104039258D03*
X152710742Y-104322101D03*
X152993585Y-104604944D03*
X153276427Y-104887786D03*
X153559270Y-105170629D03*
X153842113Y-105453472D03*
X154124955Y-105736314D03*
X154407798Y-106019157D03*
D25*
X155592202Y-106019157D03*
X155875045Y-105736314D03*
X156157887Y-105453472D03*
X156440730Y-105170629D03*
X156723573Y-104887786D03*
X157006415Y-104604944D03*
X157289258Y-104322101D03*
X157572101Y-104039258D03*
X157854944Y-103756415D03*
X158137786Y-103473573D03*
X158420629Y-103190730D03*
X158703472Y-102907887D03*
X158986314Y-102625045D03*
X159269157Y-102342202D03*
%TD*%
D26*
%TO.C,C6*%
X157275992Y-109749008D03*
X158372008Y-108652992D03*
%TD*%
D22*
%TO.C,RV2*%
X169500000Y-69575000D03*
X169500000Y-67925000D03*
%TD*%
D18*
%TO.C,R14*%
X153375000Y-88825000D03*
X153375000Y-90475000D03*
%TD*%
D27*
%TO.C,L1*%
X153851000Y-69775000D03*
X153851000Y-73925000D03*
%TD*%
D20*
%TO.C,C3*%
X158824000Y-70226000D03*
X158824000Y-71776000D03*
%TD*%
D28*
%TO.C,C7*%
X157724000Y-120576000D03*
X157724000Y-119026000D03*
%TD*%
D18*
%TO.C,R15*%
X164250000Y-64425000D03*
X164250000Y-66075000D03*
%TD*%
%TO.C,R5*%
X139230000Y-98026000D03*
X139230000Y-99676000D03*
%TD*%
D29*
%TO.C,SW1*%
X164374000Y-83976000D03*
X164374000Y-91926000D03*
X168874000Y-91926000D03*
X168874000Y-83976000D03*
%TD*%
D22*
%TO.C,R10*%
X168950000Y-77875000D03*
X168950000Y-76225000D03*
%TD*%
%TO.C,R6*%
X137224000Y-86825000D03*
X137224000Y-85175000D03*
%TD*%
D29*
%TO.C,SW2*%
X174750000Y-64725000D03*
X174750000Y-56775000D03*
X179250000Y-64725000D03*
X179250000Y-56775000D03*
%TD*%
D18*
%TO.C,R9*%
X156000000Y-62675000D03*
X156000000Y-64325000D03*
%TD*%
D22*
%TO.C,R16*%
X169500000Y-66075000D03*
X169500000Y-64425000D03*
%TD*%
D20*
%TO.C,C14*%
X154924000Y-111225000D03*
X154924000Y-112775000D03*
%TD*%
D30*
%TO.C,C5*%
X146745000Y-97500000D03*
X148295000Y-97500000D03*
%TD*%
%TO.C,C11*%
X161649000Y-94601000D03*
X163199000Y-94601000D03*
%TD*%
D22*
%TO.C,R13*%
X151375000Y-90475000D03*
X151375000Y-88825000D03*
%TD*%
D31*
%TO.C,Q2*%
X137500000Y-75112000D03*
X135600000Y-75112000D03*
X136550000Y-76987000D03*
%TD*%
D32*
%TO.C,D5*%
X137500000Y-72637000D03*
X137500000Y-70537000D03*
%TD*%
D18*
%TO.C,R3*%
X161574000Y-70176000D03*
X161574000Y-71826000D03*
%TD*%
D31*
%TO.C,Q1*%
X159774000Y-66063500D03*
X157874000Y-66063500D03*
X158824000Y-67938500D03*
%TD*%
%TO.C,U3*%
X140274000Y-101813500D03*
X138374000Y-101813500D03*
X139324000Y-103688500D03*
%TD*%
D18*
%TO.C,R7*%
X137224000Y-94576000D03*
X137224000Y-96226000D03*
%TD*%
%TO.C,R2*%
X161574000Y-65976000D03*
X161574000Y-67626000D03*
%TD*%
D33*
%TO.C,J1*%
X143700000Y-68000000D03*
D34*
X143700000Y-58750000D03*
D33*
X147700000Y-68000000D03*
D34*
X147700000Y-58750000D03*
%TD*%
D35*
%TO.C,C12*%
X162075992Y-101552992D03*
X163172008Y-102649008D03*
%TD*%
D36*
%TO.C,C17*%
X153000000Y-62250000D03*
X153000000Y-58650000D03*
%TD*%
D30*
%TO.C,C8*%
X146749000Y-95501000D03*
X148299000Y-95501000D03*
%TD*%
D37*
%TO.C,U4*%
X153301000Y-64962500D03*
X152351000Y-64962500D03*
X151401000Y-64962500D03*
X151401000Y-67237500D03*
X152351000Y-67237500D03*
X153301000Y-67237500D03*
%TD*%
D30*
%TO.C,C15*%
X159649000Y-116401000D03*
X161199000Y-116401000D03*
%TD*%
D20*
%TO.C,C13*%
X152924000Y-111225000D03*
X152924000Y-112775000D03*
%TD*%
D28*
%TO.C,C1*%
X143949000Y-81551000D03*
X143949000Y-80001000D03*
%TD*%
D38*
%TO.C,F1*%
X159000000Y-60800000D03*
X159000000Y-63600000D03*
%TD*%
D36*
%TO.C,C18*%
X143150000Y-75200000D03*
X143150000Y-71600000D03*
%TD*%
%TO.C,C19*%
X148150000Y-75200000D03*
X148150000Y-71600000D03*
%TD*%
D39*
%TO.C,Y1*%
X147324000Y-85251000D03*
X147324000Y-79751000D03*
%TD*%
D40*
%TO.C,R4*%
X172499000Y-92001000D03*
X174149000Y-92001000D03*
%TD*%
D18*
%TO.C,R17*%
X135450000Y-70762000D03*
X135450000Y-72412000D03*
%TD*%
D21*
%TO.C,C9*%
X149622008Y-105152992D03*
X148525992Y-106249008D03*
%TD*%
D22*
%TO.C,R1*%
X147324000Y-90400000D03*
X147324000Y-88750000D03*
%TD*%
D41*
%TO.C,D1*%
X156200000Y-58900000D03*
X158300000Y-58900000D03*
%TD*%
D22*
%TO.C,RV1*%
X164250000Y-69575000D03*
X164250000Y-67925000D03*
%TD*%
D26*
%TO.C,C10*%
X155875992Y-108349008D03*
X156972008Y-107252992D03*
%TD*%
M02*
